<svg xmlns="http://www.w3.org/2000/svg" xmlns:xlink="http://www.w3.org/1999/xlink" width="203" zoomAndPan="magnify" viewBox="0 0 152.25 74.999997" height="100" preserveAspectRatio="xMidYMid meet" version="1.0"><defs><g/><clipPath id="89ab94f06c"><path d="M 0.21875 16.371094 L 16.640625 16.371094 L 16.640625 58 L 0.21875 58 Z M 0.21875 16.371094 " clip-rule="nonzero"/></clipPath><clipPath id="976ec644c0"><path d="M 0.21875 0.371094 L 16.640625 0.371094 L 16.640625 41.980469 L 0.21875 41.980469 Z M 0.21875 0.371094 " clip-rule="nonzero"/></clipPath><clipPath id="6a29b64497"><rect x="0" width="17" y="0" height="42"/></clipPath><clipPath id="0184e2b188"><path d="M 18 16 L 38 16 L 38 38 L 18 38 Z M 18 16 " clip-rule="nonzero"/></clipPath><clipPath id="d05e3bca31"><path d="M 10.855469 21.265625 L 23.503906 9.660156 L 44.695312 32.757812 L 32.050781 44.359375 Z M 10.855469 21.265625 " clip-rule="nonzero"/></clipPath><clipPath id="da0ac3286e"><path d="M 10.855469 21.265625 L 23.503906 9.660156 L 44.695312 32.757812 L 32.050781 44.359375 Z M 10.855469 21.265625 " clip-rule="nonzero"/></clipPath></defs><g clip-path="url(#89ab94f06c)"><g transform="matrix(1, 0, 0, 1, 0, 16)"><g clip-path="url(#6a29b64497)"><g clip-path="url(#976ec644c0)"><path fill="#171810" d="M 16.640625 0.382812 L 16.640625 25.328125 C 16.640625 34.519531 9.1875 41.96875 0 41.96875 L 0 17.023438 C 0 7.835938 7.449219 0.382812 16.640625 0.382812 Z M 16.640625 0.382812 " fill-opacity="1" fill-rule="nonzero"/></g></g></g></g><g fill="#171810" fill-opacity="1"><g transform="translate(41.011027, 51.732412)"><g><path d="M 7.078125 -26.765625 C 7.046875 -26.484375 7.015625 -26.109375 6.984375 -25.640625 C 6.953125 -25.171875 6.9375 -24.78125 6.9375 -24.46875 L 6.9375 -22.265625 L 11.5625 -22.265625 L 11.5625 -19.484375 L 6.9375 -19.484375 L 6.9375 0 L 3.296875 0 L 3.296875 -19.484375 L 0.890625 -19.484375 L 0.890625 -22.265625 L 3.296875 -22.265625 L 3.296875 -24.140625 C 3.296875 -24.554688 3.3125 -25.019531 3.34375 -25.53125 C 3.375 -26.039062 3.40625 -26.476562 3.4375 -26.84375 C 3.625 -28.476562 4.238281 -29.734375 5.28125 -30.609375 C 6.332031 -31.484375 7.691406 -31.921875 9.359375 -31.921875 C 9.835938 -31.921875 10.296875 -31.898438 10.734375 -31.859375 C 11.171875 -31.816406 11.570312 -31.769531 11.9375 -31.71875 L 11.9375 -28.703125 C 10.550781 -28.960938 9.425781 -28.925781 8.5625 -28.59375 C 7.707031 -28.269531 7.210938 -27.660156 7.078125 -26.765625 Z M 7.078125 -26.765625 "/></g></g></g><g fill="#171810" fill-opacity="1"><g transform="translate(51.381559, 51.732412)"><g><path d="M 6.609375 -31.125 L 6.609375 -6.4375 C 6.609375 -6.09375 6.609375 -5.742188 6.609375 -5.390625 C 6.609375 -5.046875 6.617188 -4.6875 6.640625 -4.3125 C 6.703125 -3.613281 6.929688 -3.128906 7.328125 -2.859375 C 7.722656 -2.585938 8.414062 -2.507812 9.40625 -2.625 L 9.40625 0 C 9.007812 0.0507812 8.582031 0.09375 8.125 0.125 C 7.675781 0.15625 7.238281 0.171875 6.8125 0.171875 C 5.769531 0.171875 4.890625 -0.0625 4.171875 -0.53125 C 3.453125 -1 3.0625 -1.9375 3 -3.34375 C 2.976562 -3.738281 2.96875 -4.175781 2.96875 -4.65625 C 2.96875 -5.132812 2.96875 -5.6875 2.96875 -6.3125 L 2.96875 -31.125 Z M 6.609375 -31.125 "/></g></g></g><g fill="#171810" fill-opacity="1"><g transform="translate(59.931881, 51.732412)"><g><path d="M 12.40625 -23.03125 C 14.945312 -23.03125 17.039062 -22.488281 18.6875 -21.40625 C 20.34375 -20.320312 21.566406 -18.878906 22.359375 -17.078125 C 23.148438 -15.285156 23.546875 -13.332031 23.546875 -11.21875 C 23.546875 -9.132812 23.148438 -7.1875 22.359375 -5.375 C 21.566406 -3.570312 20.34375 -2.125 18.6875 -1.03125 C 17.039062 0.0507812 14.945312 0.59375 12.40625 0.59375 C 9.863281 0.59375 7.773438 0.0507812 6.140625 -1.03125 C 4.503906 -2.125 3.28125 -3.570312 2.46875 -5.375 C 1.664062 -7.1875 1.265625 -9.132812 1.265625 -11.21875 C 1.265625 -13.332031 1.664062 -15.285156 2.46875 -17.078125 C 3.28125 -18.878906 4.503906 -20.320312 6.140625 -21.40625 C 7.773438 -22.488281 9.863281 -23.03125 12.40625 -23.03125 Z M 12.40625 -2.203125 C 13.925781 -2.203125 15.21875 -2.585938 16.28125 -3.359375 C 17.34375 -4.140625 18.15625 -5.207031 18.71875 -6.5625 C 19.28125 -7.914062 19.5625 -9.46875 19.5625 -11.21875 C 19.5625 -13.875 18.929688 -16.039062 17.671875 -17.71875 C 16.421875 -19.394531 14.664062 -20.234375 12.40625 -20.234375 C 10.144531 -20.234375 8.382812 -19.394531 7.125 -17.71875 C 5.875 -16.039062 5.25 -13.875 5.25 -11.21875 C 5.25 -9.46875 5.53125 -7.914062 6.09375 -6.5625 C 6.65625 -5.207031 7.46875 -4.140625 8.53125 -3.359375 C 9.59375 -2.585938 10.882812 -2.203125 12.40625 -2.203125 Z M 12.40625 -2.203125 "/></g></g></g><g fill="#171810" fill-opacity="1"><g transform="translate(82.832269, 51.732412)"><g><path d="M 32.984375 -22.4375 L 25.828125 0 L 21.515625 0 L 16.515625 -18.890625 L 11.515625 0 L 7.203125 0 L 0.046875 -22.4375 L 4.234375 -22.4375 L 9.4375 -3.46875 L 14.359375 -22.4375 L 18.890625 -22.4375 L 23.875 -3.59375 L 29.09375 -22.4375 Z M 32.984375 -22.4375 "/></g></g></g><g fill="#171810" fill-opacity="1"><g transform="translate(114.156446, 51.732412)"><g><path d="M 12.40625 -23.03125 C 14.945312 -23.03125 17.039062 -22.488281 18.6875 -21.40625 C 20.34375 -20.320312 21.566406 -18.878906 22.359375 -17.078125 C 23.148438 -15.285156 23.546875 -13.332031 23.546875 -11.21875 C 23.546875 -9.132812 23.148438 -7.1875 22.359375 -5.375 C 21.566406 -3.570312 20.34375 -2.125 18.6875 -1.03125 C 17.039062 0.0507812 14.945312 0.59375 12.40625 0.59375 C 9.863281 0.59375 7.773438 0.0507812 6.140625 -1.03125 C 4.503906 -2.125 3.28125 -3.570312 2.46875 -5.375 C 1.664062 -7.1875 1.265625 -9.132812 1.265625 -11.21875 C 1.265625 -13.332031 1.664062 -15.285156 2.46875 -17.078125 C 3.28125 -18.878906 4.503906 -20.320312 6.140625 -21.40625 C 7.773438 -22.488281 9.863281 -23.03125 12.40625 -23.03125 Z M 12.40625 -2.203125 C 13.925781 -2.203125 15.21875 -2.585938 16.28125 -3.359375 C 17.34375 -4.140625 18.15625 -5.207031 18.71875 -6.5625 C 19.28125 -7.914062 19.5625 -9.46875 19.5625 -11.21875 C 19.5625 -13.875 18.929688 -16.039062 17.671875 -17.71875 C 16.421875 -19.394531 14.664062 -20.234375 12.40625 -20.234375 C 10.144531 -20.234375 8.382812 -19.394531 7.125 -17.71875 C 5.875 -16.039062 5.25 -13.875 5.25 -11.21875 C 5.25 -9.46875 5.53125 -7.914062 6.09375 -6.5625 C 6.65625 -5.207031 7.46875 -4.140625 8.53125 -3.359375 C 9.59375 -2.585938 10.882812 -2.203125 12.40625 -2.203125 Z M 12.40625 -2.203125 "/></g></g></g><g clip-path="url(#0184e2b188)"><g clip-path="url(#d05e3bca31)"><g clip-path="url(#da0ac3286e)"><path fill="#171810" d="M 32.957031 22.144531 C 38.222656 27.882812 37.257812 37.335938 37.257812 37.335938 C 37.257812 37.335938 27.636719 37.601562 22.371094 31.863281 C 17.105469 26.125 18.191406 16.558594 18.191406 16.558594 C 18.191406 16.558594 27.691406 16.40625 32.957031 22.144531 " fill-opacity="1" fill-rule="nonzero"/></g></g></g></svg>